<?xml version="1.0" encoding="UTF-8"?>
<svg xmlns="http://www.w3.org/2000/svg" viewBox="0 0 1200 1750" font-family="Consolas, 'Courier New', monospace">
  <defs>
    <marker id="arrow" markerWidth="10" markerHeight="7" refX="10" refY="3.5" orient="auto">
      <polygon points="0 0, 10 3.5, 0 7" fill="#555"/>
    </marker>
    <marker id="arrow-blue" markerWidth="10" markerHeight="7" refX="10" refY="3.5" orient="auto">
      <polygon points="0 0, 10 3.5, 0 7" fill="#2563eb"/>
    </marker>
    <marker id="arrow-red" markerWidth="10" markerHeight="7" refX="10" refY="3.5" orient="auto">
      <polygon points="0 0, 10 3.5, 0 7" fill="#dc2626"/>
    </marker>
    <marker id="arrow-green" markerWidth="10" markerHeight="7" refX="10" refY="3.5" orient="auto">
      <polygon points="0 0, 10 3.5, 0 7" fill="#16a34a"/>
    </marker>
    <marker id="arrow-orange" markerWidth="10" markerHeight="7" refX="10" refY="3.5" orient="auto">
      <polygon points="0 0, 10 3.5, 0 7" fill="#ea580c"/>
    </marker>
    <!-- Gradient for title -->
    <linearGradient id="titleGrad" x1="0%" y1="0%" x2="100%" y2="0%">
      <stop offset="0%" style="stop-color:#1e3a5f"/>
      <stop offset="100%" style="stop-color:#2563eb"/>
    </linearGradient>
    <!-- Shadow filter -->
    <filter id="shadow" x="-2%" y="-2%" width="104%" height="104%">
      <feDropShadow dx="2" dy="2" stdDeviation="3" flood-opacity="0.15"/>
    </filter>
  </defs>

  <!-- Background -->
  <rect width="1200" height="1750" fill="#f8fafc" rx="12"/>

  <!-- Title -->
  <rect x="30" y="20" width="1140" height="55" rx="8" fill="url(#titleGrad)"/>
  <text x="600" y="55" text-anchor="middle" fill="white" font-size="22" font-weight="bold">Chat Server Architecture — IOCP + Logic Thread Model</text>

  <!-- ============================================================ -->
  <!-- LEGEND -->
  <!-- ============================================================ -->
  <rect x="30" y="90" width="1140" height="45" rx="6" fill="#f1f5f9" stroke="#cbd5e1" stroke-width="1"/>
  <text x="55" y="118" font-size="12" fill="#64748b" font-weight="bold">LEGEND:</text>
  <!-- Thread colors -->
  <rect x="140" y="103" width="14" height="14" rx="3" fill="#dbeafe" stroke="#2563eb" stroke-width="1.5"/>
  <text x="160" y="115" font-size="11" fill="#1e40af">IOCP Worker Thread</text>
  <rect x="310" y="103" width="14" height="14" rx="3" fill="#dcfce7" stroke="#16a34a" stroke-width="1.5"/>
  <text x="330" y="115" font-size="11" fill="#166534">Logic Thread</text>
  <rect x="450" y="103" width="14" height="14" rx="3" fill="#fef3c7" stroke="#d97706" stroke-width="1.5"/>
  <text x="470" y="115" font-size="11" fill="#92400e">Main Thread</text>
  <!-- Arrow legend -->
  <line x1="600" y1="110" x2="640" y2="110" stroke="#2563eb" stroke-width="2" marker-end="url(#arrow-blue)"/>
  <text x="648" y="115" font-size="11" fill="#1e40af">I/O Flow</text>
  <line x1="730" y1="110" x2="770" y2="110" stroke="#16a34a" stroke-width="2" marker-end="url(#arrow-green)"/>
  <text x="778" y="115" font-size="11" fill="#166534">Logic Flow</text>
  <line x1="870" y1="110" x2="910" y2="110" stroke="#ea580c" stroke-width="2" marker-end="url(#arrow-orange)"/>
  <text x="918" y="115" font-size="11" fill="#9a3412">Cross-Thread</text>
  <line x1="1020" y1="110" x2="1060" y2="110" stroke="#555" stroke-width="1.5" stroke-dasharray="5,3" marker-end="url(#arrow)"/>
  <text x="1068" y="115" font-size="11" fill="#555">Implements</text>

  <!-- ============================================================ -->
  <!-- THREADING MODEL (top-right info box) -->
  <!-- ============================================================ -->
  <rect x="820" y="150" width="350" height="130" rx="8" fill="#fefce8" stroke="#ca8a04" stroke-width="1.5" filter="url(#shadow)"/>
  <text x="995" y="173" text-anchor="middle" font-size="13" font-weight="bold" fill="#854d0e">Threading Model</text>
  <line x1="835" y1="180" x2="1155" y2="180" stroke="#ca8a04" stroke-width="0.5"/>
  <text x="840" y="198" font-size="11" fill="#713f12">Main Thread      : Server lifecycle control</text>
  <text x="840" y="215" font-size="11" fill="#713f12">Worker Thread x N : IOCP I/O completions</text>
  <text x="840" y="232" font-size="11" fill="#713f12">Logic Thread x 1  : GameLoop + Handler dispatch</text>
  <line x1="835" y1="242" x2="1155" y2="242" stroke="#ca8a04" stroke-width="0.5"/>
  <text x="840" y="258" font-size="10" fill="#92400e" font-style="italic">Workers produce → MPSC Queue → Logic consumes</text>
  <text x="840" y="273" font-size="10" fill="#92400e" font-style="italic">Handlers never called concurrently (serialized)</text>

  <!-- ============================================================ -->
  <!-- CLIENT (external) -->
  <!-- ============================================================ -->
  <rect x="230" y="150" width="200" height="50" rx="25" fill="#e2e8f0" stroke="#64748b" stroke-width="2" filter="url(#shadow)"/>
  <text x="330" y="180" text-anchor="middle" font-size="14" font-weight="bold" fill="#334155">TCP Client</text>

  <!-- Arrow: Client → Server -->
  <line x1="330" y1="200" x2="330" y2="238" stroke="#2563eb" stroke-width="2.5" marker-end="url(#arrow-blue)"/>
  <text x="340" y="225" font-size="10" fill="#2563eb">connect</text>

  <!-- ============================================================ -->
  <!-- APPLICATION LAYER -->
  <!-- ============================================================ -->
  <rect x="30" y="245" width="770" height="200" rx="10" fill="#fff7ed" stroke="#ea580c" stroke-width="2" filter="url(#shadow)"/>
  <text x="50" y="270" font-size="14" font-weight="bold" fill="#9a3412">Application Layer</text>
  <text x="50" y="286" font-size="10" fill="#c2410c">exec/chat/chat-server/</text>

  <!-- Server box -->
  <rect x="50" y="300" width="260" height="130" rx="8" fill="#fff" stroke="#ea580c" stroke-width="1.5"/>
  <rect x="50" y="300" width="260" height="25" rx="8" fill="#fed7aa"/>
  <rect x="50" y="317" width="260" height="8" fill="#fff"/>
  <text x="180" y="318" text-anchor="middle" font-size="12" font-weight="bold" fill="#9a3412">Server</text>
  <text x="65" y="340" font-size="10" fill="#78350f">implements ISessionEventReceiver</text>
  <line x1="60" y1="348" x2="300" y2="348" stroke="#fdba74" stroke-width="0.5"/>
  <text x="65" y="363" font-size="10" fill="#555">+ OnAccept(client)</text>
  <text x="65" y="378" font-size="10" fill="#555">+ OnRecv(client, data) → GameLoop</text>
  <text x="65" y="393" font-size="10" fill="#555">+ OnDisconnect(client)</text>
  <text x="65" y="408" font-size="10" fill="#555">+ Start() / Stop()</text>
  <text x="65" y="423" font-size="10" fill="#999">owns: _lifecycle, _gameLoop</text>

  <!-- GameLoop box -->
  <rect x="340" y="300" width="220" height="130" rx="8" fill="#f0fdf4" stroke="#16a34a" stroke-width="1.5"/>
  <rect x="340" y="300" width="220" height="25" rx="8" fill="#bbf7d0"/>
  <rect x="340" y="317" width="220" height="8" fill="#f0fdf4"/>
  <text x="450" y="318" text-anchor="middle" font-size="12" font-weight="bold" fill="#166534">GameLoop</text>
  <text x="355" y="340" font-size="10" fill="#14532d">runs on Logic Thread</text>
  <line x1="350" y1="348" x2="550" y2="348" stroke="#86efac" stroke-width="0.5"/>
  <text x="355" y="363" font-size="10" fill="#555">+ Start() → spawn LogicThread</text>
  <text x="355" y="378" font-size="10" fill="#555">+ Receive(client, data)</text>
  <text x="355" y="393" font-size="10" fill="#555">+ Update(stop_token)</text>
  <text x="355" y="408" font-size="10" fill="#555">  └ Dispatcher.Tick()</text>
  <text x="355" y="423" font-size="10" fill="#999">owns: _dispatcher, _logicThread</text>

  <!-- Room box (새로 추가됨) -->
  <rect x="590" y="300" width="190" height="130" rx="8" fill="#fdf4ff" stroke="#a855f7" stroke-width="1.5"/>
  <rect x="590" y="300" width="190" height="25" rx="8" fill="#e9d5ff"/>
  <rect x="590" y="317" width="190" height="8" fill="#fdf4ff"/>
  <text x="685" y="318" text-anchor="middle" font-size="12" font-weight="bold" fill="#7e22ce">Room</text>
  <text x="605" y="340" font-size="10" fill="#581c87">채팅방 단위 관리 (WIP)</text>
  <line x1="600" y1="348" x2="770" y2="348" stroke="#d8b4fe" stroke-width="0.5"/>
  <text x="605" y="363" font-size="10" fill="#999">(구현 예정)</text>
  <text x="605" y="378" font-size="10" fill="#999">- 유저 입장/퇴장</text>
  <text x="605" y="393" font-size="10" fill="#999">- 메시지 브로드캐스트</text>
  <text x="605" y="408" font-size="10" fill="#999">- room_id 기반 라우팅</text>

  <!-- Arrow: Server → GameLoop -->
  <line x1="310" y1="375" x2="335" y2="375" stroke="#ea580c" stroke-width="2" marker-end="url(#arrow-orange)"/>
  <text x="310" y="368" font-size="9" fill="#ea580c">owns</text>

  <!-- Arrow: GameLoop → Room (planned) -->
  <line x1="560" y1="375" x2="585" y2="375" stroke="#a855f7" stroke-width="1.5" stroke-dasharray="5,3" marker-end="url(#arrow)"/>

  <!-- ============================================================ -->
  <!-- HANDLER LAYER -->
  <!-- ============================================================ -->
  <rect x="30" y="465" width="770" height="155" rx="10" fill="#eff6ff" stroke="#2563eb" stroke-width="2" filter="url(#shadow)"/>
  <text x="50" y="490" font-size="14" font-weight="bold" fill="#1e40af">Handler Layer</text>
  <text x="50" y="506" font-size="10" fill="#3b82f6">exec/chat/chat-server/handlers/ — Logic Thread context</text>

  <!-- SelfHandlerRegistry -->
  <rect x="50" y="518" width="200" height="85" rx="8" fill="#fff" stroke="#6366f1" stroke-width="1.5"/>
  <rect x="50" y="518" width="200" height="22" rx="8" fill="#c7d2fe"/>
  <rect x="50" y="534" width="200" height="6" fill="#fff"/>
  <text x="150" y="535" text-anchor="middle" font-size="11" font-weight="bold" fill="#4338ca">SelfHandlerRegistry</text>
  <text x="65" y="555" font-size="10" fill="#555">Singleton (static init)</text>
  <text x="65" y="570" font-size="10" fill="#555">+ Add(FactoryFn)</text>
  <text x="65" y="585" font-size="10" fill="#555">+ RegisterAll(dispatcher)</text>
  <text x="65" y="598" font-size="9" fill="#999">SELF_REGISTER_PACKET_HANDLER</text>

  <!-- Handler boxes -->
  <rect x="280" y="518" width="160" height="50" rx="6" fill="#dbeafe" stroke="#3b82f6" stroke-width="1"/>
  <text x="360" y="537" text-anchor="middle" font-size="11" font-weight="bold" fill="#1e40af">JoinRoomHandler</text>
  <text x="360" y="555" text-anchor="middle" font-size="9" fill="#555">IPacketHandler&lt;JoinRoomReq&gt;</text>

  <rect x="460" y="518" width="160" height="50" rx="6" fill="#dbeafe" stroke="#3b82f6" stroke-width="1"/>
  <text x="540" y="537" text-anchor="middle" font-size="11" font-weight="bold" fill="#1e40af">LeaveRoomHandler</text>
  <text x="540" y="555" text-anchor="middle" font-size="9" fill="#555">IPacketHandler&lt;LeaveRoomReq&gt;</text>

  <rect x="280" y="578" width="160" height="50" rx="6" fill="#dbeafe" stroke="#3b82f6" stroke-width="1"/>
  <text x="360" y="597" text-anchor="middle" font-size="11" font-weight="bold" fill="#1e40af">ChatMsgHandler</text>
  <text x="360" y="614" text-anchor="middle" font-size="9" fill="#555">IPacketHandler&lt;SendMsgReq&gt;</text>

  <!-- IPacketHandler interface -->
  <rect x="640" y="518" width="145" height="50" rx="6" fill="#faf5ff" stroke="#a855f7" stroke-width="1.5" stroke-dasharray="4,2"/>
  <text x="712" y="537" text-anchor="middle" font-size="11" font-weight="bold" fill="#7e22ce">&lt;&lt;interface&gt;&gt;</text>
  <text x="712" y="555" text-anchor="middle" font-size="10" fill="#7e22ce">IPacketHandler&lt;T&gt;</text>
  <text x="712" y="570" text-anchor="middle" font-size="9" fill="#999">Handle(client, T*)</text>

  <!-- Dashed arrows: handlers implement interface -->
  <line x1="440" y1="540" x2="635" y2="540" stroke="#a855f7" stroke-width="1" stroke-dasharray="4,3"/>
  <line x1="440" y1="600" x2="640" y2="568" stroke="#a855f7" stroke-width="1" stroke-dasharray="4,3"/>
  <line x1="620" y1="540" x2="635" y2="540" stroke="#a855f7" stroke-width="1" stroke-dasharray="4,3"/>

  <!-- Arrow: Registry → Handlers -->
  <line x1="250" y1="550" x2="275" y2="540" stroke="#6366f1" stroke-width="1.5" marker-end="url(#arrow)"/>

  <!-- ============================================================ -->
  <!-- PACKET DISPATCH LAYER -->
  <!-- ============================================================ -->
  <rect x="30" y="640" width="770" height="145" rx="10" fill="#f0fdf4" stroke="#16a34a" stroke-width="2" filter="url(#shadow)"/>
  <text x="50" y="665" font-size="14" font-weight="bold" fill="#166534">Packet Dispatch Layer</text>
  <text x="50" y="681" font-size="10" fill="#22c55e">network/inc/server/ — Cross-Thread Boundary</text>

  <!-- PacketDispatcher box -->
  <rect x="50" y="693" width="350" height="80" rx="8" fill="#fff" stroke="#16a34a" stroke-width="1.5"/>
  <rect x="50" y="693" width="350" height="22" rx="8" fill="#bbf7d0"/>
  <rect x="50" y="709" width="350" height="6" fill="#fff"/>
  <text x="225" y="710" text-anchor="middle" font-size="12" font-weight="bold" fill="#166534">PacketDispatcher</text>
  <text x="65" y="730" font-size="10" fill="#555">Receive(client, data)  ← Worker Thread (produce)</text>
  <text x="65" y="745" font-size="10" fill="#555">Tick()                 ← Logic Thread (consume)</text>
  <text x="65" y="760" font-size="10" fill="#555">RegisterHandler&lt;T&gt;(IPacketHandler&lt;T&gt;*)</text>

  <!-- MPSC Queue box -->
  <rect x="440" y="693" width="200" height="80" rx="8" fill="#fef3c7" stroke="#d97706" stroke-width="1.5"/>
  <rect x="440" y="693" width="200" height="22" rx="8" fill="#fde68a"/>
  <rect x="440" y="709" width="200" height="6" fill="#fef3c7"/>
  <text x="540" y="710" text-anchor="middle" font-size="12" font-weight="bold" fill="#92400e">MPSCCommandQueue</text>
  <text x="455" y="730" font-size="10" fill="#555">PacketCommand {</text>
  <text x="465" y="745" font-size="10" fill="#555">  client, payloadType,</text>
  <text x="465" y="760" font-size="10" fill="#555">  data: vector&lt;uint8&gt;</text>
  <text x="455" y="773" font-size="10" fill="#555">}</text>

  <!-- Arrow: Dispatcher → Queue -->
  <line x1="400" y1="733" x2="435" y2="733" stroke="#ea580c" stroke-width="2" marker-end="url(#arrow-orange)"/>
  <text x="402" y="727" font-size="9" fill="#ea580c">push</text>

  <!-- FrameBuffer box -->
  <rect x="670" y="693" width="115" height="80" rx="8" fill="#fff" stroke="#16a34a" stroke-width="1"/>
  <text x="727" y="715" text-anchor="middle" font-size="11" font-weight="bold" fill="#166534">FrameBuffer</text>
  <text x="680" y="733" font-size="9" fill="#555">[4B len][payload]</text>
  <text x="680" y="748" font-size="9" fill="#555">Append / Consume</text>
  <text x="680" y="763" font-size="9" fill="#999">64KB buffer</text>

  <!-- ============================================================ -->
  <!-- NETWORK LAYER -->
  <!-- ============================================================ -->
  <rect x="30" y="810" width="1140" height="220" rx="10" fill="#eff6ff" stroke="#2563eb" stroke-width="2" filter="url(#shadow)"/>
  <text x="50" y="835" font-size="14" font-weight="bold" fill="#1e40af">Network Layer (IOCP)</text>
  <text x="50" y="851" font-size="10" fill="#3b82f6">network/ — Windows IOCP async I/O</text>

  <!-- ISessionEventReceiver interface -->
  <rect x="820" y="460" width="200" height="55" rx="6" fill="#faf5ff" stroke="#a855f7" stroke-width="1.5" stroke-dasharray="4,2"/>
  <text x="920" y="480" text-anchor="middle" font-size="11" font-weight="bold" fill="#7e22ce">&lt;&lt;interface&gt;&gt;</text>
  <text x="920" y="497" text-anchor="middle" font-size="10" fill="#7e22ce">ISessionEventReceiver</text>
  <text x="920" y="510" text-anchor="middle" font-size="9" fill="#999">OnAccept/OnRecv/OnSend/OnDisconnect</text>

  <!-- Dashed arrow: Server implements ISessionEventReceiver -->
  <line x1="310" y1="363" x2="815" y2="480" stroke="#a855f7" stroke-width="1.5" stroke-dasharray="5,3"/>

  <!-- ServerLifeCycle box -->
  <rect x="50" y="865" width="310" height="150" rx="8" fill="#fff" stroke="#2563eb" stroke-width="1.5"/>
  <rect x="50" y="865" width="310" height="25" rx="8" fill="#bfdbfe"/>
  <rect x="50" y="882" width="310" height="8" fill="#fff"/>
  <text x="205" y="883" text-anchor="middle" font-size="12" font-weight="bold" fill="#1e40af">ServerLifeCycle</text>
  <text x="65" y="905" font-size="10" fill="#555">+ Start(socket, config)</text>
  <text x="65" y="920" font-size="10" fill="#555">+ Stop()</text>
  <text x="65" y="935" font-size="10" fill="#555">+ OnCompletion(event) → dispatch</text>
  <text x="65" y="950" font-size="10" fill="#555">  ├ HandleRecv → handler.OnRecv()</text>
  <text x="65" y="965" font-size="10" fill="#555">  ├ HandleSend → handler.OnSend()</text>
  <text x="65" y="980" font-size="10" fill="#555">  └ SetupClient → handler.OnAccept()</text>
  <text x="65" y="1000" font-size="10" fill="#999">owns: _iocp, _acceptor, _clientPool</text>

  <!-- IocpIoMultiplexer box -->
  <rect x="400" y="865" width="260" height="150" rx="8" fill="#dbeafe" stroke="#2563eb" stroke-width="1.5"/>
  <rect x="400" y="865" width="260" height="25" rx="8" fill="#93c5fd"/>
  <rect x="400" y="882" width="260" height="8" fill="#dbeafe"/>
  <text x="530" y="883" text-anchor="middle" font-size="12" font-weight="bold" fill="#1e40af">IocpIoMultiplexer</text>
  <text x="415" y="905" font-size="10" fill="#1e3a5f">IOCP Kernel + Worker Pool</text>
  <line x1="410" y1="912" x2="650" y2="912" stroke="#93c5fd" stroke-width="0.5"/>
  <text x="415" y="928" font-size="10" fill="#555">+ Initialize(threadCount)</text>
  <text x="415" y="943" font-size="10" fill="#555">+ AssociateSocket(socket)</text>
  <text x="415" y="958" font-size="10" fill="#555">+ WorkerLoop(stop_token)</text>
  <text x="425" y="973" font-size="10" fill="#555">  GQCS() → completionHandler()</text>
  <text x="415" y="988" font-size="10" fill="#555">+ Shutdown()</text>
  <text x="415" y="1003" font-size="10" fill="#999">owns: _handle, _workerThreads[]</text>

  <!-- IocpAcceptor box -->
  <rect x="700" y="865" width="220" height="150" rx="8" fill="#dbeafe" stroke="#2563eb" stroke-width="1.5"/>
  <rect x="700" y="865" width="220" height="25" rx="8" fill="#93c5fd"/>
  <rect x="700" y="882" width="220" height="8" fill="#dbeafe"/>
  <text x="810" y="883" text-anchor="middle" font-size="12" font-weight="bold" fill="#1e40af">IocpAcceptor</text>
  <text x="715" y="905" font-size="10" fill="#1e3a5f">AcceptEx async accept</text>
  <line x1="710" y1="912" x2="910" y2="912" stroke="#93c5fd" stroke-width="0.5"/>
  <text x="715" y="928" font-size="10" fill="#555">+ PostAccept()</text>
  <text x="715" y="943" font-size="10" fill="#555">+ PostAccepts(backlog)</text>
  <text x="715" y="958" font-size="10" fill="#555">+ OnAcceptComplete()</text>
  <text x="715" y="973" font-size="10" fill="#555">+ Shutdown()</text>
  <text x="715" y="1003" font-size="10" fill="#999">AcceptOverlapped pool</text>

  <!-- Client box -->
  <rect x="960" y="865" width="195" height="150" rx="8" fill="#fff" stroke="#2563eb" stroke-width="1.5"/>
  <rect x="960" y="865" width="195" height="25" rx="8" fill="#bfdbfe"/>
  <rect x="960" y="882" width="195" height="8" fill="#fff"/>
  <text x="1057" y="883" text-anchor="middle" font-size="12" font-weight="bold" fill="#1e40af">Client</text>
  <text x="975" y="905" font-size="10" fill="#555">Per-connection state</text>
  <line x1="970" y1="912" x2="1145" y2="912" stroke="#bfdbfe" stroke-width="0.5"/>
  <text x="975" y="928" font-size="10" fill="#555">+ PostRecv() → WSARecv</text>
  <text x="975" y="943" font-size="10" fill="#555">+ PostSend() → WSASend</text>
  <text x="975" y="958" font-size="10" fill="#555">+ Close()</text>
  <text x="975" y="978" font-size="10" fill="#999">RecvOverlapped (4KB)</text>
  <text x="975" y="993" font-size="10" fill="#999">SendOverlapped (1KB)</text>
  <text x="975" y="1008" font-size="10" fill="#999">FrameBuffer (64KB)</text>

  <!-- Arrows within network layer -->
  <line x1="360" y1="935" x2="395" y2="935" stroke="#2563eb" stroke-width="2" marker-end="url(#arrow-blue)"/>
  <line x1="660" y1="935" x2="695" y2="935" stroke="#2563eb" stroke-width="2" marker-end="url(#arrow-blue)"/>
  <line x1="920" y1="935" x2="955" y2="935" stroke="#2563eb" stroke-width="2" marker-end="url(#arrow-blue)"/>

  <!-- ============================================================ -->
  <!-- PROTOCOL LAYER -->
  <!-- ============================================================ -->
  <rect x="30" y="1055" width="1140" height="165" rx="10" fill="#fefce8" stroke="#ca8a04" stroke-width="2" filter="url(#shadow)"/>
  <text x="50" y="1080" font-size="14" font-weight="bold" fill="#854d0e">Protocol Layer (FlatBuffers)</text>
  <text x="50" y="1096" font-size="10" fill="#a16207">protocol/flatbuf/schemas/</text>

  <!-- Packet -->
  <rect x="50" y="1108" width="180" height="100" rx="8" fill="#fff" stroke="#ca8a04" stroke-width="1.5"/>
  <rect x="50" y="1108" width="180" height="22" rx="8" fill="#fde68a"/>
  <rect x="50" y="1124" width="180" height="6" fill="#fff"/>
  <text x="140" y="1125" text-anchor="middle" font-size="11" font-weight="bold" fill="#854d0e">Packet (root)</text>
  <text x="65" y="1148" font-size="10" fill="#555">type: MessageType</text>
  <text x="65" y="1163" font-size="10" fill="#555">payload: Payload (union)</text>
  <text x="65" y="1178" font-size="10" fill="#555">sequence: uint32</text>
  <text x="65" y="1198" font-size="9" fill="#999">Wire: [4B len][FlatBuf]</text>

  <!-- Payload Union -->
  <rect x="270" y="1108" width="200" height="100" rx="8" fill="#fff" stroke="#ca8a04" stroke-width="1.5"/>
  <rect x="270" y="1108" width="200" height="22" rx="8" fill="#fde68a"/>
  <rect x="270" y="1124" width="200" height="6" fill="#fff"/>
  <text x="370" y="1125" text-anchor="middle" font-size="11" font-weight="bold" fill="#854d0e">union Payload</text>
  <text x="285" y="1148" font-size="10" fill="#555">JoinRoomRequest</text>
  <text x="285" y="1163" font-size="10" fill="#555">LeaveRoomRequest</text>
  <text x="285" y="1178" font-size="10" fill="#555">SendMessageRequest</text>
  <text x="285" y="1198" font-size="10" fill="#999">+ Responses, Broadcasts...</text>

  <!-- Request schemas -->
  <rect x="510" y="1108" width="200" height="100" rx="8" fill="#fff" stroke="#ca8a04" stroke-width="1"/>
  <text x="610" y="1130" text-anchor="middle" font-size="11" font-weight="bold" fill="#854d0e">Request Schemas</text>
  <text x="525" y="1148" font-size="10" fill="#555">JoinRoom  { room_id: u32 }</text>
  <text x="525" y="1163" font-size="10" fill="#555">LeaveRoom { room_id: u32 }</text>
  <text x="525" y="1178" font-size="10" fill="#555">SendMsg   { room_id, msg }</text>

  <!-- Response/Broadcast schemas -->
  <rect x="750" y="1108" width="240" height="100" rx="8" fill="#fff" stroke="#ca8a04" stroke-width="1"/>
  <text x="870" y="1130" text-anchor="middle" font-size="11" font-weight="bold" fill="#854d0e">Response / Broadcast</text>
  <text x="765" y="1148" font-size="10" fill="#555">JoinedRoomResponse</text>
  <text x="765" y="1163" font-size="10" fill="#555">ChatMessageBroadcast</text>
  <text x="765" y="1178" font-size="10" fill="#555">UserJoined/LeftBroadcast</text>
  <text x="765" y="1193" font-size="10" fill="#555">ErrorResponse</text>

  <!-- Arrow: Packet → Union -->
  <line x1="230" y1="1158" x2="265" y2="1158" stroke="#ca8a04" stroke-width="1.5" marker-end="url(#arrow)"/>
  <!-- Arrow: Union → Schemas -->
  <line x1="470" y1="1158" x2="505" y2="1158" stroke="#ca8a04" stroke-width="1.5" marker-end="url(#arrow)"/>

  <!-- ============================================================ -->
  <!-- UTILITY LAYER -->
  <!-- ============================================================ -->
  <rect x="30" y="1240" width="1140" height="80" rx="10" fill="#f1f5f9" stroke="#94a3b8" stroke-width="1.5" filter="url(#shadow)"/>
  <text x="50" y="1265" font-size="14" font-weight="bold" fill="#475569">Utility Layer</text>
  <text x="50" y="1281" font-size="10" fill="#94a3b8">lib/</text>

  <rect x="50" y="1290" width="120" height="22" rx="4" fill="#e2e8f0" stroke="#94a3b8" stroke-width="1"/>
  <text x="110" y="1305" text-anchor="middle" font-size="10" fill="#475569">Result&lt;T, E&gt;</text>

  <rect x="185" y="1290" width="100" height="22" rx="4" fill="#e2e8f0" stroke="#94a3b8" stroke-width="1"/>
  <text x="235" y="1305" text-anchor="middle" font-size="10" fill="#475569">Logger</text>

  <rect x="300" y="1290" width="120" height="22" rx="4" fill="#e2e8f0" stroke="#94a3b8" stroke-width="1"/>
  <text x="360" y="1305" text-anchor="middle" font-size="10" fill="#475569">LogicThread</text>

  <rect x="435" y="1290" width="120" height="22" rx="4" fill="#e2e8f0" stroke="#94a3b8" stroke-width="1"/>
  <text x="495" y="1305" text-anchor="middle" font-size="10" fill="#475569">ObjectPool</text>

  <rect x="570" y="1290" width="130" height="22" rx="4" fill="#e2e8f0" stroke="#94a3b8" stroke-width="1"/>
  <text x="635" y="1305" text-anchor="middle" font-size="10" fill="#475569">SocketHelper</text>

  <rect x="715" y="1290" width="140" height="22" rx="4" fill="#e2e8f0" stroke="#94a3b8" stroke-width="1"/>
  <text x="785" y="1305" text-anchor="middle" font-size="10" fill="#475569">Error Types</text>

  <!-- ============================================================ -->
  <!-- DATA FLOW DIAGRAM -->
  <!-- ============================================================ -->
  <rect x="30" y="1345" width="1140" height="380" rx="10" fill="#fdf2f8" stroke="#db2777" stroke-width="2" filter="url(#shadow)"/>
  <text x="600" y="1373" text-anchor="middle" font-size="16" font-weight="bold" fill="#9d174d">Packet Flow: Client → Server → Response</text>

  <!-- Step 1 -->
  <rect x="60" y="1395" width="220" height="55" rx="8" fill="#dbeafe" stroke="#2563eb" stroke-width="1.5"/>
  <text x="170" y="1413" text-anchor="middle" font-size="11" font-weight="bold" fill="#1e40af">1. TCP Data Arrival</text>
  <text x="170" y="1430" text-anchor="middle" font-size="10" fill="#555">WSARecv completes on IOCP</text>
  <text x="170" y="1443" text-anchor="middle" font-size="9" fill="#2563eb">Worker Thread</text>

  <!-- Arrow -->
  <line x1="280" y1="1422" x2="315" y2="1422" stroke="#2563eb" stroke-width="2" marker-end="url(#arrow-blue)"/>

  <!-- Step 2 -->
  <rect x="320" y="1395" width="220" height="55" rx="8" fill="#dbeafe" stroke="#2563eb" stroke-width="1.5"/>
  <text x="430" y="1413" text-anchor="middle" font-size="11" font-weight="bold" fill="#1e40af">2. ServerLifeCycle</text>
  <text x="430" y="1430" text-anchor="middle" font-size="10" fill="#555">HandleRecv → Server.OnRecv</text>
  <text x="430" y="1443" text-anchor="middle" font-size="9" fill="#2563eb">Worker Thread</text>

  <!-- Arrow -->
  <line x1="540" y1="1422" x2="575" y2="1422" stroke="#2563eb" stroke-width="2" marker-end="url(#arrow-blue)"/>

  <!-- Step 3 -->
  <rect x="580" y="1395" width="220" height="55" rx="8" fill="#dbeafe" stroke="#2563eb" stroke-width="1.5"/>
  <text x="690" y="1413" text-anchor="middle" font-size="11" font-weight="bold" fill="#1e40af">3. Frame Assembly</text>
  <text x="690" y="1430" text-anchor="middle" font-size="10" fill="#555">FrameBuffer → Parse FlatBuf</text>
  <text x="690" y="1443" text-anchor="middle" font-size="9" fill="#2563eb">Worker Thread</text>

  <!-- Arrow -->
  <line x1="800" y1="1422" x2="835" y2="1422" stroke="#ea580c" stroke-width="2.5" marker-end="url(#arrow-orange)"/>
  <text x="810" y="1412" font-size="9" fill="#ea580c" font-weight="bold">CROSS</text>

  <!-- Step 4 - MPSC Queue -->
  <rect x="840" y="1395" width="180" height="55" rx="8" fill="#fef3c7" stroke="#d97706" stroke-width="2"/>
  <text x="930" y="1413" text-anchor="middle" font-size="11" font-weight="bold" fill="#92400e">4. MPSC Queue</text>
  <text x="930" y="1430" text-anchor="middle" font-size="10" fill="#555">PacketCommand enqueued</text>
  <text x="930" y="1443" text-anchor="middle" font-size="9" fill="#ea580c" font-weight="bold">Thread Boundary</text>

  <!-- Arrow down -->
  <line x1="930" y1="1450" x2="930" y2="1488" stroke="#16a34a" stroke-width="2.5" marker-end="url(#arrow-green)"/>

  <!-- Step 5 -->
  <rect x="840" y="1493" width="180" height="55" rx="8" fill="#dcfce7" stroke="#16a34a" stroke-width="1.5"/>
  <text x="930" y="1511" text-anchor="middle" font-size="11" font-weight="bold" fill="#166534">5. Tick() Drain</text>
  <text x="930" y="1528" text-anchor="middle" font-size="10" fill="#555">Dispatcher drains queue</text>
  <text x="930" y="1541" text-anchor="middle" font-size="9" fill="#16a34a">Logic Thread</text>

  <!-- Arrow left -->
  <line x1="835" y1="1520" x2="800" y2="1520" stroke="#16a34a" stroke-width="2" marker-end="url(#arrow-green)"/>

  <!-- Step 6 -->
  <rect x="580" y="1493" width="220" height="55" rx="8" fill="#dcfce7" stroke="#16a34a" stroke-width="1.5"/>
  <text x="690" y="1511" text-anchor="middle" font-size="11" font-weight="bold" fill="#166534">6. Handler Dispatch</text>
  <text x="690" y="1528" text-anchor="middle" font-size="10" fill="#555">DispatchPacket → Handle()</text>
  <text x="690" y="1541" text-anchor="middle" font-size="9" fill="#16a34a">Logic Thread (serialized)</text>

  <!-- Arrow left -->
  <line x1="575" y1="1520" x2="540" y2="1520" stroke="#16a34a" stroke-width="2" marker-end="url(#arrow-green)"/>

  <!-- Step 7 -->
  <rect x="320" y="1493" width="220" height="55" rx="8" fill="#dcfce7" stroke="#16a34a" stroke-width="1.5"/>
  <text x="430" y="1511" text-anchor="middle" font-size="11" font-weight="bold" fill="#166534">7. Business Logic</text>
  <text x="430" y="1528" text-anchor="middle" font-size="10" fill="#555">Room join/leave/chat</text>
  <text x="430" y="1541" text-anchor="middle" font-size="9" fill="#16a34a">Logic Thread</text>

  <!-- Arrow left -->
  <line x1="315" y1="1520" x2="280" y2="1520" stroke="#2563eb" stroke-width="2" marker-end="url(#arrow-blue)"/>

  <!-- Step 8 -->
  <rect x="60" y="1493" width="220" height="55" rx="8" fill="#dbeafe" stroke="#2563eb" stroke-width="1.5"/>
  <text x="170" y="1511" text-anchor="middle" font-size="11" font-weight="bold" fill="#1e40af">8. PostSend</text>
  <text x="170" y="1528" text-anchor="middle" font-size="10" fill="#555">Client.PostSend(response)</text>
  <text x="170" y="1541" text-anchor="middle" font-size="9" fill="#2563eb">→ WSASend async</text>

  <!-- Key insight box -->
  <rect x="60" y="1575" width="500" height="60" rx="6" fill="#fff0f6" stroke="#db2777" stroke-width="1"/>
  <text x="80" y="1595" font-size="11" fill="#9d174d" font-weight="bold">Key Insight: Zero-lock handler execution</text>
  <text x="80" y="1612" font-size="10" fill="#831843">IOCP Workers(N) → MPSC Queue → Logic Thread(1) → Handlers run serially</text>
  <text x="80" y="1627" font-size="10" fill="#831843">No mutex needed on game state — all handlers are single-threaded</text>

  <!-- Tick rate -->
  <rect x="620" y="1575" width="400" height="60" rx="6" fill="#f0fdf4" stroke="#16a34a" stroke-width="1"/>
  <text x="640" y="1595" font-size="11" fill="#166534" font-weight="bold">Logic Loop Timing</text>
  <text x="640" y="1612" font-size="10" fill="#14532d">GameLoop.Update() runs every tickMs (config, default ~33ms)</text>
  <text x="640" y="1627" font-size="10" fill="#14532d">Drains ALL queued packets per tick → batch processing</text>

  <!-- Config note -->
  <rect x="820" y="1240" width="340" height="80" rx="8" fill="#fff" stroke="#94a3b8" stroke-width="1"/>
  <text x="990" y="1262" text-anchor="middle" font-size="12" font-weight="bold" fill="#475569">Configuration</text>
  <text x="835" y="1280" font-size="10" fill="#555">Compile: config.compile.toml → Const.h</text>
  <text x="835" y="1295" font-size="10" fill="#555">Runtime: config.runtime.toml → NetworkCfg</text>
  <text x="835" y="1310" font-size="10" fill="#555">Env overrides: SERVER_PORT, SERVER_MAX_CLIENTS</text>

  <!-- ============================================================ -->
  <!-- CROSS-LAYER ARROWS (major flows) -->
  <!-- ============================================================ -->
  <!-- Server → ServerLifeCycle -->
  <path d="M 180 430 L 180 860" stroke="#ea580c" stroke-width="2" fill="none" stroke-dasharray="6,3" marker-end="url(#arrow-orange)"/>
  <text x="130" y="580" font-size="9" fill="#ea580c" transform="rotate(-90, 130, 580)">Server owns lifecycle</text>

  <!-- GameLoop → PacketDispatcher -->
  <path d="M 450 430 L 450 465 L 225 465 L 225 688" stroke="#16a34a" stroke-width="2" fill="none" marker-end="url(#arrow-green)"/>
  <text x="340" y="460" font-size="9" fill="#16a34a">owns dispatcher</text>

  <!-- ServerLifeCycle → ISessionEventReceiver callback -->
  <path d="M 360 970 Q 920 1050 920 515" stroke="#a855f7" stroke-width="1.5" fill="none" stroke-dasharray="5,3" marker-end="url(#arrow)"/>
  <text x="700" y="1040" font-size="9" fill="#7e22ce">callback via interface</text>

  <!-- Footer -->
  <text x="600" y="1740" text-anchor="middle" font-size="11" fill="#94a3b8">highp-mmorpg / chat-server architecture — IOCP + Single Logic Thread Model</text>
</svg>
